HIERARCHY
ROOT hip
{
	OFFSET 0.000000 0.000000 0.000000 
	CHANNELS 6 Xposition Yposition Zposition Xrotation Zrotation Yrotation
	JOINT abdomen
	{
		OFFSET 0.000000 3.402643 0.000000 
		CHANNELS 3 Xrotation Zrotation Yrotation
		JOINT chest
		{
			OFFSET 0.000000 8.438565 -0.680529 
			CHANNELS 3 Xrotation Zrotation Yrotation
			JOINT neck
			{
				OFFSET 0.000000 10.207942 -0.272212 
				CHANNELS 3 Xrotation Zrotation Yrotation
				JOINT head
				{
					OFFSET 0.000000 3.130431 0.000000 
					CHANNELS 3 Xrotation Zrotation Yrotation
					End Site
					{
						OFFSET 0.000000 3.130435 0.000000 
					}
				}
			}
			JOINT lCollar
			{
				OFFSET 3.470700 6.669187 -0.816635 
				CHANNELS 3 Yrotation Zrotation Xrotation
				JOINT lShldr
				{
					OFFSET 3.198488 0.000000 0.000000 
					CHANNELS 3 Zrotation Yrotation Xrotation
					JOINT lForeArm
					{
						OFFSET 10.139888 0.000000 0.000000 
						CHANNELS 3 Yrotation Zrotation Xrotation
						JOINT lHand
						{
							OFFSET 8.370511 0.000000 0.000000 
							CHANNELS 3 Zrotation Yrotation Xrotation
							End Site
							{
								OFFSET 4.083176 0.000000 0.000000 
							}
						}
					}
				}
			}
			JOINT rCollar
			{
				OFFSET -3.470700 6.669187 -0.816635 
				CHANNELS 3 Yrotation Zrotation Xrotation
				JOINT rShldr
				{
					OFFSET -3.198488 0.000000 0.000000 
					CHANNELS 3 Zrotation Yrotation Xrotation
					JOINT rForeArm
					{
						OFFSET -10.139888 0.000000 0.000000 
						CHANNELS 3 Yrotation Zrotation Xrotation
						JOINT rHand
						{
							OFFSET -8.370511 0.000000 0.000000 
							CHANNELS 3 Zrotation Yrotation Xrotation
							End Site
							{
								OFFSET -4.083176 0.000000 0.000000 
							}
						}
					}
				}
			}
		}
	}
	JOINT lThigh
	{
		OFFSET 5.308129 -1.633274 1.361059 
		CHANNELS 3 Xrotation Zrotation Yrotation
		JOINT lShin
		{
			OFFSET -2.041588 -20.007561 0.000000 
			CHANNELS 3 Xrotation Zrotation Yrotation
			JOINT lFoot
			{
				OFFSET 0.000000 -19.190928 -1.224953 
				CHANNELS 3 Xrotation Yrotation Zrotation
				End Site
				{
					OFFSET 0.000000 -2.449906 4.627600 
				}
			}
		}
	}
	JOINT rThigh
	{
		OFFSET -5.308129 -1.633274 1.361059 
		CHANNELS 3 Xrotation Zrotation Yrotation
		JOINT rShin
		{
			OFFSET 2.041588 -20.007561 0.000000 
			CHANNELS 3 Xrotation Zrotation Yrotation
			JOINT rFoot
			{
				OFFSET 0.000000 -19.190928 -1.224953 
				CHANNELS 3 Xrotation Yrotation Zrotation
				End Site
				{
					OFFSET 0.000000 -2.449906 4.627600 
				}
			}
		}
	}
}
MOTION
Frames: 16
Frame Time: 0.016667
-10.939275 43.005745 46.390205 0.499215 1.574224 -102.657745 23.391665 -2.310589 3.312971 -10.548605 -7.502999 3.821607 -17.492960 4.517555 23.172083 14.065032 7.416615 24.092045 19.487534 -7.903733 -0.175929 -41.944172 -8.069794 17.220497 -120.579926 -1.386990 2.073089 18.258612 21.061682 6.023452 -10.113212 6.987460 -0.194407 58.859901 25.024128 37.889790 124.164764 2.169842 -8.097851 -28.615171 -14.969995 7.144638 -21.526455 9.349797 15.733889 54.727184 -0.248642 -3.037598 -25.236023 -6.475536 -14.934151 -24.803234 -33.415405 -6.522561 39.973347 0.351588 2.367024 -4.545744 5.624862 12.306021 
-10.577174 42.762314 45.626816 0.760636 1.750406 -104.063560 23.127991 -2.310589 3.312971 -10.371029 -7.766085 3.822879 -17.681959 4.544797 23.428139 13.976910 7.589327 24.349001 19.500275 -7.880909 -0.083403 -41.494560 -8.016443 16.345419 -120.669716 -1.429067 2.149003 18.410736 20.870207 5.986403 -10.027133 7.159545 -0.175392 58.503799 24.607893 37.731117 123.478645 2.125296 -7.221875 -26.629864 -12.412969 5.495149 -21.481129 10.456118 15.342294 54.620331 -0.170554 -3.245392 -27.013138 -4.933851 -14.496801 -23.749920 -34.100838 -5.815377 39.625698 0.273318 2.499265 -4.255065 5.071039 12.311099 
-10.215115 42.519650 44.862972 1.016572 1.934278 -105.468102 22.864321 -2.310589 3.312971 -10.203242 -8.029171 3.825522 -17.860914 4.571813 23.684202 13.884748 7.770036 24.606180 19.503223 -7.848302 0.010453 -41.039364 -7.947594 15.462746 -120.759209 -1.471375 2.225302 18.576851 20.674990 5.960374 -9.931408 7.331663 -0.156384 58.150959 24.179764 37.576599 122.791389 2.078376 -6.347119 -24.736528 -9.809756 3.950846 -21.442659 11.550248 14.970836 54.523159 -0.082635 -3.449013 -28.794237 -3.401622 -13.995468 -22.682615 -34.789864 -5.149234 39.268154 0.198945 2.632952 -3.957072 4.515329 12.276336 
-9.872271 42.659065 43.876965 1.553917 2.371105 -106.346893 22.332747 -2.436936 3.469887 -10.111428 -7.325991 4.006864 -18.034313 3.960965 23.752098 13.975265 7.948222 24.608561 19.835938 -8.076527 -0.054569 -41.638165 -7.815420 15.399440 -121.144020 -1.358614 3.367799 18.373011 20.206247 5.773087 -10.116237 7.158095 -0.165806 57.573978 22.287306 37.241325 122.101738 1.984194 -5.087792 -23.208378 -5.656502 2.049943 -20.878674 13.242065 14.975780 53.029938 -0.080472 -3.386560 -29.224146 -2.291008 -13.367358 -21.160952 -34.059578 -5.804725 38.559238 0.253918 2.522754 -3.791668 4.415129 12.326707 
-9.529149 42.799290 42.890636 2.083323 2.815910 -107.219254 21.801537 -2.553504 3.616650 -10.024915 -6.623050 4.187534 -18.199434 3.350845 23.822897 14.063073 8.116912 24.619503 20.168219 -8.295742 -0.119324 -42.236549 -7.692021 15.329249 -121.529022 -1.253200 4.506361 18.171022 19.736568 5.588832 -10.291359 6.984561 -0.175227 57.015106 20.385561 36.936001 121.410332 1.882344 -3.831069 -21.825733 -1.481452 0.266998 -20.290874 14.938860 14.987436 51.547539 -0.099523 -3.306271 -29.654240 -1.190690 -12.745566 -19.657162 -33.307892 -6.423832 37.859966 0.312366 2.413443 -3.627867 4.314188 12.429817 
-9.049928 43.334572 41.750092 2.787362 3.517260 -106.604385 21.371840 -2.514969 3.450369 -10.109485 -6.448452 4.098006 -18.550066 3.254528 23.742102 14.064327 8.295750 24.611395 20.535303 -8.019120 -0.082860 -43.234043 -8.314624 15.306645 -122.308426 -1.274073 4.632212 17.996744 19.755011 5.587659 -10.284676 7.155082 -0.145437 57.508129 17.034060 36.770916 121.760223 1.939846 -4.065421 -18.836821 -0.423739 -0.092823 -20.386763 16.811356 13.739107 49.259384 -0.362711 -3.169150 -26.818848 -1.264857 -12.553799 -17.957281 -31.948872 -8.684195 36.716930 0.394534 2.407283 -2.731771 5.846573 12.336297 
-8.570684 43.870533 40.609325 3.490636 4.210870 -105.981850 20.942341 -2.476424 3.274333 -10.194607 -6.273801 4.007431 -18.909651 3.157848 23.671133 14.066985 8.473970 24.613163 20.902010 -7.742032 -0.045198 -44.222065 -8.933297 15.289508 -123.087685 -1.297015 4.758325 17.822483 19.773638 5.589720 -10.287913 7.335397 -0.116851 58.000866 13.678155 36.572163 122.109222 1.994753 -4.303170 -15.862933 0.648490 -0.397407 -20.498257 18.662359 12.474060 46.980167 -0.608867 -3.005090 -23.989309 -1.349571 -12.359764 -16.347136 -30.554804 -10.861252 35.583622 0.492301 2.395073 -1.820699 7.336731 12.223705 
-8.080594 44.734943 39.367886 4.284759 4.570674 -104.660568 21.031099 -2.544940 3.167009 -10.101013 -6.187423 3.830581 -19.348097 3.151016 23.582863 14.417500 8.376493 24.468197 20.816553 -7.822912 -0.027130 -45.104286 -9.543976 15.220875 -122.995300 -1.157416 6.209921 16.464710 18.485825 4.701778 -10.364026 7.688873 -0.126369 58.562733 10.108838 35.758778 121.749321 2.074328 -5.791940 -12.967477 1.468605 -0.498195 -19.889217 20.766331 11.966940 43.198849 -0.764553 -2.952127 -19.527557 -3.038755 -12.888252 -14.626861 -28.742191 -12.851621 33.734531 0.570633 2.167350 0.600954 10.836144 11.945819 
-7.590449 45.599617 38.126408 5.079596 4.911782 -103.338326 21.120113 -2.613461 3.059693 -10.017727 -6.100951 3.652687 -19.776760 3.144165 23.494593 14.771180 8.288263 24.313656 20.731153 -7.903849 -0.009047 -45.987720 -10.163615 15.157216 -122.892792 -1.016178 7.664956 15.149191 17.176901 3.862075 -10.430227 8.052117 -0.135866 59.168419 6.556880 34.914413 121.384659 2.162798 -7.284416 -10.082397 2.281999 -0.554132 -19.293186 22.893932 11.454540 39.407532 -0.946013 -2.861679 -15.053563 -4.801513 -13.267777 -13.007379 -26.872446 -14.766483 31.904238 0.649069 1.948137 3.068606 14.316468 11.509737 
-7.074168 46.594135 36.864338 5.772489 5.014014 -101.314636 21.567726 -2.467705 2.824692 -9.927096 -6.365886 3.389489 -20.123055 3.188637 23.133921 15.384742 8.284965 24.086229 20.727404 -7.826327 -0.036193 -46.974606 -11.049232 15.795156 -123.103134 -0.993965 8.291365 15.597690 17.444864 4.132435 -10.005820 8.122448 -0.097964 59.793148 3.401438 33.646801 120.270264 2.284989 -10.929733 -9.444449 0.309925 -0.219842 -19.050194 24.741112 11.759242 35.289967 -1.066391 -2.562002 -8.214526 -7.578622 -12.999705 -11.200981 -25.203308 -17.620085 29.880899 0.649238 1.931871 6.371064 17.985897 10.289275 
-6.557703 47.588303 35.602371 6.490020 5.094656 -99.291275 22.014141 -2.321847 2.589721 -9.853552 -6.630830 3.126399 -20.466072 3.242179 22.773272 16.012146 8.290409 23.858788 20.722506 -7.742495 -0.073718 -47.986126 -11.924394 16.444298 -123.315788 -0.958119 8.927714 16.048435 17.709860 4.406710 -9.571754 8.203107 -0.058580 60.486248 0.261062 32.344738 119.165993 2.480422 -14.563209 -8.827320 -1.664467 0.100133 -18.786333 26.595669 12.064042 31.172089 -1.173466 -2.224793 -1.320258 -10.281910 -12.372996 -9.501904 -23.433525 -20.361269 27.868074 0.644381 1.896345 9.816056 21.555004 8.845607 
-5.951071 48.431408 34.374695 7.003356 5.105577 -96.750206 22.817842 -2.263745 2.335634 -10.030055 -7.061573 2.863443 -20.724714 3.708030 22.197506 16.277266 8.370669 23.438475 20.910801 -7.472089 -0.054269 -49.202759 -13.535118 17.155098 -122.798882 -0.883733 10.603777 15.262054 17.642866 4.133471 -9.133733 8.202213 -0.117302 60.645187 -2.105351 31.110754 117.518730 2.518083 -14.759392 -10.949271 -2.687054 0.300967 -19.528275 27.952097 12.814342 27.735523 -1.387964 -2.088407 4.954612 -13.871406 -10.702562 -8.262274 -21.857464 -22.272898 26.641436 0.692868 1.734084 11.558323 22.427187 7.878414 
-5.344305 49.273769 33.147118 7.527696 5.092078 -94.206757 23.611635 -2.205590 2.071785 -10.201740 -7.502179 2.589710 -20.983549 4.177515 21.613541 16.543804 8.460420 23.009970 21.098921 -7.191797 -0.036156 -50.450428 -15.146591 17.906847 -122.294022 -0.787515 12.285762 14.473958 17.583818 3.859031 -8.684547 8.201887 -0.185717 60.848480 -4.459109 29.859419 115.866058 2.581499 -14.951929 -13.064416 -3.692863 0.545693 -20.240337 29.307392 13.569458 24.293657 -1.592867 -1.948413 11.420802 -17.222443 -8.593841 -7.071028 -20.234934 -24.155571 25.432375 0.737046 1.619454 13.299270 23.233292 6.886897 
-4.673421 49.770107 31.966145 7.618607 5.004637 -91.754395 24.412569 -2.225467 1.798174 -10.372092 -7.503656 2.324475 -20.968285 4.467069 21.053427 16.544188 8.202436 22.489744 21.014462 -7.269128 -0.009043 -51.650116 -16.434288 18.758667 -122.355965 -0.709900 13.227551 15.570087 18.953352 4.516421 -7.997448 7.911031 -0.147708 59.890663 -6.503453 29.002316 114.570328 2.426727 -12.822285 -12.961864 -2.759724 0.374564 -21.464321 29.549280 13.661833 22.519093 -1.508219 -1.828155 12.098238 -17.329317 -8.375676 -6.905004 -19.299307 -23.887516 26.477076 0.746914 1.660324 10.940425 19.423172 8.459254 
-4.002635 50.265568 30.785192 7.695981 4.911614 -89.300552 25.213818 -2.255072 1.514805 -10.553490 -7.504928 2.067645 -20.962784 4.749413 20.484108 16.544525 7.933186 21.960333 20.920322 -7.346542 0.019343 -52.890102 -17.703255 19.656235 -122.423706 -0.624742 14.169044 16.694883 20.318943 5.217872 -7.321037 7.619877 -0.098593 58.955952 -8.565407 28.177851 113.277740 2.238140 -10.692666 -12.870786 -1.818621 0.194903 -22.664974 29.773027 13.771666 20.782074 -1.426357 -1.752760 12.751514 -17.396557 -8.169579 -6.709312 -18.362495 -23.629574 27.531763 0.746997 1.699836 8.739447 15.565226 9.832186 
-3.377261 50.347584 29.612789 7.612820 5.000091 -87.192528 25.477655 -2.489525 1.368442 -10.200697 -7.241819 1.978002 -20.508625 4.599715 19.969448 16.088430 7.320524 21.315603 20.657072 -7.276533 -0.054384 -54.529320 -18.714926 20.561132 -122.759071 -0.677705 14.292922 18.276781 21.358545 6.160796 -6.614416 7.436517 -0.127573 57.048954 -9.738822 27.975946 113.047325 2.156442 -8.721600 -14.891571 -0.491253 -0.061430 -24.773691 29.664648 13.948521 22.105846 -1.426690 -1.996523 10.038770 -13.955557 -9.603163 -7.343900 -17.583164 -21.973677 28.916460 0.796029 1.786193 5.340122 11.563976 10.948578 
